<svg xmlns="http://www.w3.org/2000/svg" xmlns:xlink="http://www.w3.org/1999/xlink" width="500" zoomAndPan="magnify" viewBox="0 0 375 374.999991" height="500" preserveAspectRatio="xMidYMid meet" version="1.0"><defs><clipPath id="6180872805"><path d="M 1.40625 262 L 187 262 L 187 353 L 1.40625 353 Z M 1.40625 262 " clip-rule="nonzero"/></clipPath><clipPath id="cf8a952fa1"><path d="M 145 292 L 373.40625 292 L 373.40625 375 L 145 375 Z M 145 292 " clip-rule="nonzero"/></clipPath></defs><path fill="#3d2b13" d="M 307.660156 352.125 L 315.902344 352.125 L 315.902344 343.886719 L 307.660156 343.886719 L 307.660156 352.125 " fill-opacity="1" fill-rule="nonzero"/><path fill="#3d2b13" d="M 296.289062 352.125 L 304.53125 352.125 L 304.53125 343.886719 L 296.289062 343.886719 L 296.289062 352.125 " fill-opacity="1" fill-rule="nonzero"/><path fill="#3d2b13" d="M 307.660156 363.492188 L 315.902344 363.492188 L 315.902344 355.25 L 307.660156 355.25 L 307.660156 363.492188 " fill-opacity="1" fill-rule="nonzero"/><path fill="#3d2b13" d="M 296.289062 363.492188 L 304.53125 363.492188 L 304.53125 355.25 L 296.289062 355.25 L 296.289062 363.492188 " fill-opacity="1" fill-rule="nonzero"/><path fill="#3d2b13" d="M 330.550781 317.664062 L 320.851562 313.519531 L 330.550781 323.476562 Z M 330.550781 317.664062 " fill-opacity="1" fill-rule="nonzero"/><path fill="#3d2b13" d="M 108.828125 109.347656 L 108.828125 189.429688 L 106.371094 189.429688 L 106.371094 108.296875 Z M 125.523438 116.484375 L 125.523438 229.894531 L 119.855469 229.894531 L 119.855469 114.066406 Z M 140.722656 58.03125 L 149.421875 50.242188 L 149.421875 121.441406 L 145.019531 119.554688 L 141.898438 118.226562 L 140.722656 117.714844 Z M 50.503906 146.515625 L 57.726562 140.054688 L 57.726562 286.929688 L 61.390625 283.171875 L 61.390625 136.777344 L 70.5625 128.574219 L 70.5625 238.882812 L 74.226562 238.882812 L 74.226562 125.296875 L 84.597656 116.019531 L 84.597656 272.394531 L 88.257812 272.394531 L 88.257812 112.757812 L 95.484375 106.285156 L 95.484375 272.394531 L 125.007812 272.394531 L 125.007812 271.578125 L 123.488281 271.578125 L 123.488281 257.285156 L 141.898438 257.285156 L 141.898438 123.496094 L 145.019531 124.828125 L 145.019531 257.285156 L 150.289062 257.285156 L 150.289062 271.578125 L 148.882812 271.578125 L 148.882812 272.394531 L 156.773438 272.394531 L 156.773438 124.585938 L 153.835938 123.324219 L 153.835938 46.296875 L 164.890625 36.40625 L 164.890625 169.363281 L 169.308594 169.363281 L 169.308594 32.460938 L 181.804688 21.277344 L 181.804688 281.855469 L 186.222656 286.386719 L 186.222656 17.335938 L 194.945312 9.542969 L 194.945312 294 L 213.617188 294 L 215.132812 295.558594 L 219.050781 299.578125 L 232.304688 299.578125 L 232.304688 287.21875 L 238.851562 287.21875 L 238.851562 198.246094 L 245.082031 192.667969 L 245.082031 287.21875 L 248.242188 287.21875 L 248.242188 189.839844 L 256.164062 182.761719 L 256.164062 277.9375 L 259.324219 277.9375 L 259.324219 179.941406 L 268.269531 171.929688 L 268.269531 299.578125 L 271.425781 299.578125 L 271.425781 169.113281 L 277.667969 163.535156 L 277.667969 299.578125 L 288.210938 299.578125 L 282.039062 296.941406 L 282.039062 290.484375 L 303.324219 299.578125 L 307.273438 299.578125 L 308.789062 301.136719 L 310.078125 302.460938 L 330.550781 311.207031 L 330.550781 296.796875 L 282.039062 276.074219 L 282.039062 269.621094 L 330.550781 290.339844 L 330.550781 275.9375 L 282.039062 255.214844 L 282.039062 248.761719 L 330.550781 269.480469 L 330.550781 255.070312 L 282.039062 234.347656 L 282.039062 227.894531 L 330.550781 248.613281 L 330.550781 234.210938 L 282.039062 213.488281 L 282.039062 207.035156 L 330.550781 227.753906 L 330.550781 213.339844 L 282.039062 192.621094 L 282.039062 186.167969 L 330.550781 206.886719 L 330.550781 192.480469 L 282.039062 171.761719 L 282.039062 165.308594 L 330.550781 186.027344 L 330.550781 179.320312 L 282.828125 158.910156 L 277.667969 156.703125 L 271.425781 162.253906 L 268.808594 164.578125 L 268.808594 145.316406 L 202.160156 116.847656 L 202.160156 110.394531 L 268.808594 138.863281 L 268.808594 130.914062 L 202.160156 102.441406 L 202.160156 95.988281 L 268.808594 124.457031 L 268.808594 116.5 L 202.160156 88.03125 L 202.160156 81.574219 L 268.808594 110.046875 L 268.808594 102.097656 L 202.160156 73.625 L 202.160156 67.171875 L 268.808594 95.640625 L 268.808594 87.683594 L 202.160156 59.21875 L 202.160156 52.757812 L 268.808594 81.230469 L 268.808594 73.28125 L 202.160156 44.808594 L 202.160156 38.355469 L 268.808594 66.824219 L 268.808594 58.871094 L 202.160156 30.40625 L 202.160156 23.949219 L 268.808594 52.414062 L 268.808594 44.46875 L 202.160156 15.996094 L 202.160156 9.542969 L 268.808594 38.007812 L 268.808594 31.597656 L 202.160156 3.082031 L 194.945312 0 L 186.222656 7.75 L 181.804688 11.671875 L 169.308594 22.789062 L 164.890625 26.714844 L 153.835938 36.539062 L 149.421875 40.46875 L 133.375 54.730469 L 133.375 114.570312 L 125.523438 111.214844 L 119.855469 108.792969 L 119.855469 108.785156 L 108.828125 104.070312 L 108.828125 104.078125 L 106.371094 103.023438 L 101.476562 100.929688 L 95.484375 98.375 L 91.988281 101.472656 L 88.257812 104.796875 L 84.597656 108.050781 L 74.226562 117.273438 L 70.5625 120.527344 L 61.390625 128.683594 L 57.726562 131.945312 L 44.417969 143.78125 L 44.417969 300.59375 L 50.503906 294.34375 L 50.503906 146.515625 " fill-opacity="1" fill-rule="nonzero"/><path fill="#3d2b13" d="M 64.257812 325.984375 L 73.007812 325.984375 L 73.007812 317.242188 L 64.257812 317.242188 L 64.257812 325.984375 " fill-opacity="1" fill-rule="nonzero"/><path fill="#3d2b13" d="M 76.324219 325.984375 L 85.070312 325.984375 L 85.070312 317.242188 L 76.324219 317.242188 L 76.324219 325.984375 " fill-opacity="1" fill-rule="nonzero"/><path fill="#3d2b13" d="M 64.257812 338.050781 L 73.007812 338.050781 L 73.007812 329.300781 L 64.257812 329.300781 L 64.257812 338.050781 " fill-opacity="1" fill-rule="nonzero"/><path fill="#3d2b13" d="M 76.324219 338.050781 L 85.070312 338.050781 L 85.070312 329.300781 L 76.324219 329.300781 L 76.324219 338.050781 " fill-opacity="1" fill-rule="nonzero"/><g clip-path="url(#6180872805)"><path fill="#3d2b13" d="M 174.453125 352.121094 L 156.773438 333.984375 L 154.492188 331.644531 L 137.261719 331.644531 L 141.898438 326.882812 L 145.019531 323.683594 L 145.785156 322.894531 L 156.773438 311.625 L 159.527344 308.796875 L 172.421875 295.558594 L 173.9375 294 L 186.4375 294 L 186.222656 293.777344 L 181.804688 289.242188 L 170.421875 277.546875 L 143.730469 277.546875 L 143.730469 266.425781 L 145.136719 266.425781 L 145.136719 262.4375 L 128.644531 262.4375 L 128.644531 266.425781 L 130.160156 266.425781 L 130.160156 296.675781 L 123.230469 289.570312 L 123.230469 277.546875 L 74.066406 277.546875 L 61.390625 290.554688 L 57.722656 294.3125 L 50.503906 301.722656 L 44.417969 307.976562 L 1.402344 352.121094 L 16.550781 352.121094 L 44.417969 323.535156 L 50.503906 317.285156 L 57.722656 309.882812 L 61.390625 306.121094 L 74.066406 293.117188 L 84.597656 303.921875 L 88.257812 307.671875 L 95.484375 315.09375 L 131.570312 352.121094 L 174.453125 352.121094 " fill-opacity="1" fill-rule="nonzero"/></g><path fill="#3d2b13" d="M 210.414062 320.464844 L 206.136719 320.464844 L 206.136719 324.738281 L 210.414062 324.738281 L 210.414062 320.464844 " fill-opacity="1" fill-rule="nonzero"/><path fill="#3d2b13" d="M 206.136719 330.636719 L 210.414062 330.636719 L 210.414062 326.363281 L 206.136719 326.363281 L 206.136719 330.636719 " fill-opacity="1" fill-rule="nonzero"/><path fill="#3d2b13" d="M 216.308594 320.464844 L 212.035156 320.464844 L 212.035156 324.738281 L 216.308594 324.738281 L 216.308594 320.464844 " fill-opacity="1" fill-rule="nonzero"/><path fill="#3d2b13" d="M 212.035156 330.636719 L 216.308594 330.636719 L 216.308594 326.363281 L 212.035156 326.363281 L 212.035156 330.636719 " fill-opacity="1" fill-rule="nonzero"/><g clip-path="url(#cf8a952fa1)"><path fill="#3d2b13" d="M 330.550781 330.851562 L 308.539062 308.261719 L 305.097656 304.730469 L 258.773438 304.730469 L 258.773438 316.039062 L 252.238281 322.753906 L 252.238281 296.363281 L 253.945312 296.363281 L 253.945312 292.371094 L 237.460938 292.371094 L 237.460938 296.363281 L 238.851562 296.363281 L 238.851562 304.730469 L 222.78125 304.730469 L 238.851562 321.222656 L 241.109375 323.542969 L 245.082031 327.621094 L 248.109375 330.726562 L 236.761719 330.726562 L 236.761719 357.546875 L 162.839844 357.546875 L 156.773438 363.773438 L 145.851562 375 L 250.914062 375 L 268.269531 357.1875 L 271.425781 353.949219 L 277.667969 347.542969 L 285.058594 339.957031 L 289.503906 335.398438 L 299.417969 325.21875 L 303.859375 320.664062 L 305.097656 319.390625 L 308.109375 322.480469 L 318.878906 333.539062 L 330.550781 345.511719 L 359.28125 375 L 373.558594 375 L 330.550781 330.851562 " fill-opacity="1" fill-rule="nonzero"/></g><path fill="#3d2b13" d="M 232.527344 351.0625 L 232.527344 326.496094 L 238.085938 326.496094 L 216.878906 304.730469 L 211.859375 299.578125 L 211.445312 299.148438 L 176.109375 299.148438 L 163.214844 312.390625 L 156.773438 319 L 149.472656 326.496094 L 156.664062 326.496094 L 156.773438 326.605469 L 156.773438 326.496094 L 190.359375 326.496094 L 194.945312 321.792969 L 204.234375 312.257812 L 211.445312 304.855469 L 212.816406 306.261719 L 226.683594 320.484375 L 226.683594 351.0625 L 232.527344 351.0625 " fill-opacity="1" fill-rule="nonzero"/></svg>