<?xml version="1.0" encoding="utf-8"?>
<!-- Uploaded to: SVG Repo, www.svgrepo.com, Generator: SVG Repo Mixer Tools -->
<svg width="800px" height="800px" viewBox="0 0 1024 1024" class="icon"  version="1.1" xmlns="http://www.w3.org/2000/svg"><path d="M883 803.6c8.3 0 15-6.7 15-15v-75.4l-90.4 90.4H883zM517.4 539.4c-12 0-24.1-2.7-33.5-8.1L126 324.6v463.9c0 8.3 6.7 15 15 15h499.5L898 546.1V330.9L550.9 531.3c-9.4 5.4-21.5 8.1-33.5 8.1zM257.9 602c-32.2 0-58.3-26.1-58.3-58.3s26.1-58.3 58.3-58.3c32.2 0 58.3 26.1 58.3 58.3S290.1 602 257.9 602zM765.2 803.6L898 670.8v-82.3L682.9 803.6z" fill="#FFBC00" /><path d="M883 220.4H141c-8.3 0-15 6.7-15 15V290l372.9 215.3c9.7 5.6 27.3 5.6 37 0L898 296.2v-60.8c0-8.2-6.7-15-15-15z" fill="#FFBC00" /><path d="M883 190.4H141c-24.8 0-45 20.2-45 45v553.1c0 24.8 20.2 45 45 45h742c24.8 0 45-20.2 45-45V235.4c0-24.8-20.2-45-45-45z m15 598.2c0 8.3-6.7 15-15 15h-75.4l90.4-90.4v75.4z m0-117.8L765.2 803.6h-82.3L898 588.5v82.3z m0-124.7L640.5 803.6H141c-8.3 0-15-6.7-15-15v-464l357.9 206.6c9.4 5.4 21.4 8.1 33.5 8.1 12 0 24.1-2.7 33.5-8.1L898 330.9v215.2z m0-249.9L535.9 505.3c-9.7 5.6-27.3 5.6-37 0L126 290v-54.6c0-8.3 6.7-15 15-15h742c8.3 0 15 6.7 15 15v60.8z" fill="#46287C" /><path d="M257.9 543.7m-58.3 0a58.3 58.3 0 1 0 116.6 0 58.3 58.3 0 1 0-116.6 0Z" fill="#FFFFFF" /></svg>